<svg width="103" height="103" viewBox="0 0 103 103" fill="none" xmlns="http://www.w3.org/2000/svg">
<path d="M51.9628 97.9423C26.1128 97.9423 5.15277 76.9923 5.15277 51.1323C5.15277 25.2723 26.1128 4.32227 51.9628 4.32227C77.8128 4.32227 98.7728 25.2823 98.7728 51.1323C98.7728 76.9823 77.8128 97.9423 51.9628 97.9423Z" fill="#FEFEFE"/>
<path fill-rule="evenodd" clip-rule="evenodd" d="M97.8628 51.1324C97.8628 76.4824 77.3128 97.0324 51.9628 97.0324C26.6128 97.0324 6.06275 76.4824 6.06275 51.1324C6.06275 25.7824 26.6128 5.23244 51.9628 5.23244C77.3128 5.23244 97.8628 25.7824 97.8628 51.1324ZM51.9628 1.49243C79.3828 1.49243 101.603 23.7124 101.603 51.1324C101.603 78.5524 79.3728 100.772 51.9628 100.772C24.5428 100.772 2.32275 78.5424 2.32275 51.1324C2.32275 23.7124 24.5428 1.49243 51.9628 1.49243Z" fill="#F2F1F0"/>
<path d="M36.2386 38.1381H35.0089V34.8305C35.0089 34.4733 35.0243 34.0788 35.0552 33.6471H35.0243C34.9601 33.9863 34.9023 34.2305 34.8509 34.3795L33.5556 38.1381H32.5379L31.2195 34.4181C31.1836 34.3178 31.1257 34.0608 31.0461 33.6471H31.0114C31.0448 34.1919 31.0615 34.6699 31.0615 35.0811V38.1381H29.9397V32.6101H31.7631L32.8926 35.8868C32.9825 36.1489 33.0481 36.4123 33.0892 36.677H33.1123C33.1817 36.3712 33.2549 36.1052 33.332 35.8791L34.4615 32.6101H36.2386V38.1381Z" fill="#474747"/>
<path d="M38.7405 38.1381H37.4954V32.6101H38.7405V38.1381Z" fill="#474747"/>
<path d="M43.9639 37.9415C43.5604 38.1368 43.0336 38.2344 42.3834 38.2344C41.5353 38.2344 40.8684 37.9851 40.3827 37.4866C39.897 36.988 39.6541 36.3237 39.6541 35.4936C39.6541 34.6095 39.9265 33.8925 40.4714 33.3425C41.0188 32.7926 41.7281 32.5176 42.5993 32.5176C43.139 32.5176 43.5938 32.5857 43.9639 32.7219V33.9208C43.5938 33.6998 43.1724 33.5892 42.6995 33.5892C42.1804 33.5892 41.7615 33.7524 41.4428 34.0788C41.1241 34.4052 40.9648 34.8472 40.9648 35.4049C40.9648 35.9395 41.1151 36.3661 41.4158 36.6848C41.7165 37.0009 42.1213 37.1589 42.6301 37.1589C43.1158 37.1589 43.5604 37.0407 43.9639 36.8043V37.9415Z" fill="#474747"/>
<path d="M49.5651 38.1381H48.135L47.2753 36.7156C47.2111 36.6077 47.1494 36.5113 47.0903 36.4265C47.0312 36.3417 46.9708 36.2697 46.9091 36.2106C46.85 36.1489 46.787 36.1027 46.7202 36.0718C46.6559 36.0384 46.5853 36.0217 46.5082 36.0217H46.1728V38.1381H44.9277V32.6101H46.9014C48.2429 32.6101 48.9136 33.1112 48.9136 34.1135C48.9136 34.3063 48.8841 34.4849 48.825 34.6494C48.7659 34.8113 48.6824 34.9577 48.5744 35.0888C48.4665 35.2199 48.3354 35.333 48.1812 35.428C48.0296 35.5231 47.86 35.5977 47.6724 35.6516V35.6671C47.7546 35.6928 47.8343 35.7352 47.9114 35.7943C47.9885 35.8508 48.063 35.9176 48.135 35.9947C48.2069 36.0718 48.275 36.1553 48.3393 36.2453C48.4061 36.3327 48.4665 36.4188 48.5204 36.5036L49.5651 38.1381ZM46.1728 33.543V35.0811H46.7125C46.9798 35.0811 47.1943 35.004 47.3563 34.8498C47.5207 34.693 47.603 34.499 47.603 34.2677C47.603 33.7846 47.3139 33.543 46.7356 33.543H46.1728Z" fill="#474747"/>
<path d="M52.3445 38.2344C51.553 38.2344 50.9079 37.9774 50.4094 37.4634C49.9108 36.9469 49.6615 36.2748 49.6615 35.4473C49.6615 34.5735 49.9146 33.8668 50.4209 33.3271C50.9272 32.7874 51.598 32.5176 52.4332 32.5176C53.2222 32.5176 53.8595 32.7759 54.3452 33.2924C54.8335 33.809 55.0777 34.49 55.0777 35.3355C55.0777 36.2042 54.8245 36.9045 54.3183 37.4365C53.8145 37.9684 53.1566 38.2344 52.3445 38.2344ZM52.3985 33.5892C51.9616 33.5892 51.6147 33.7537 51.3577 34.0827C51.1007 34.4091 50.9722 34.8421 50.9722 35.3818C50.9722 35.9292 51.1007 36.3622 51.3577 36.6809C51.6147 36.9996 51.9513 37.1589 52.3677 37.1589C52.7968 37.1589 53.1374 37.0047 53.3892 36.6963C53.6411 36.3854 53.767 35.9549 53.767 35.4049C53.767 34.8318 53.6449 34.3859 53.4008 34.0673C53.1566 33.7486 52.8225 33.5892 52.3985 33.5892Z" fill="#474747"/>
<path d="M55.7446 37.926V36.6925C55.9682 36.8801 56.211 37.0214 56.4732 37.1165C56.7353 37.209 57 37.2553 57.2673 37.2553C57.424 37.2553 57.5602 37.2411 57.6759 37.2129C57.7941 37.1846 57.8918 37.1461 57.9689 37.0972C58.0485 37.0458 58.1076 36.9867 58.1462 36.9199C58.1847 36.8505 58.204 36.776 58.204 36.6963C58.204 36.5884 58.1732 36.492 58.1115 36.4072C58.0498 36.3224 57.965 36.244 57.8571 36.172C57.7517 36.1001 57.6258 36.0307 57.4793 35.9639C57.3328 35.8971 57.1748 35.829 57.0051 35.7596C56.5734 35.5797 56.2509 35.3599 56.0376 35.1004C55.8268 34.8408 55.7214 34.5273 55.7214 34.1598C55.7214 33.8719 55.7793 33.6252 55.8949 33.4196C56.0106 33.2115 56.1673 33.0406 56.3652 32.9069C56.5657 32.7733 56.797 32.6756 57.0591 32.614C57.3212 32.5497 57.5988 32.5176 57.8918 32.5176C58.1796 32.5176 58.434 32.5356 58.655 32.5715C58.8786 32.605 59.0842 32.6576 59.2718 32.7296V33.8822C59.1793 33.818 59.0778 33.7614 58.9673 33.7126C58.8594 33.6638 58.7476 33.6239 58.6319 33.5931C58.5163 33.5597 58.4006 33.5353 58.285 33.5199C58.1719 33.5044 58.064 33.4967 57.9612 33.4967C57.8198 33.4967 57.6913 33.5109 57.5757 33.5391C57.46 33.5648 57.3624 33.6021 57.2827 33.6509C57.203 33.6998 57.1413 33.7589 57.0977 33.8283C57.054 33.8951 57.0321 33.9709 57.0321 34.0557C57.0321 34.1482 57.0565 34.2317 57.1054 34.3063C57.1542 34.3782 57.2236 34.4476 57.3135 34.5144C57.4035 34.5787 57.5127 34.6429 57.6412 34.7072C57.7697 34.7689 57.9149 34.8331 58.0768 34.8999C58.2978 34.9924 58.4957 35.0914 58.6705 35.1968C58.8478 35.2996 58.9994 35.4165 59.1253 35.5476C59.2513 35.6786 59.3476 35.829 59.4145 35.9986C59.4813 36.1656 59.5147 36.3609 59.5147 36.5845C59.5147 36.8929 59.4556 37.1525 59.3374 37.3632C59.2217 37.5714 59.0637 37.741 58.8632 37.8721C58.6628 38.0006 58.4289 38.0931 58.1616 38.1496C57.8969 38.2062 57.6168 38.2344 57.3212 38.2344C57.018 38.2344 56.7289 38.2087 56.4539 38.1573C56.1815 38.1059 55.945 38.0288 55.7446 37.926Z" fill="#474747"/>
<path d="M62.7605 38.2344C61.969 38.2344 61.3239 37.9774 60.8254 37.4634C60.3268 36.9469 60.0775 36.2748 60.0775 35.4473C60.0775 34.5735 60.3307 33.8668 60.8369 33.3271C61.3432 32.7874 62.014 32.5176 62.8492 32.5176C63.6382 32.5176 64.2755 32.7759 64.7613 33.2924C65.2495 33.809 65.4937 34.49 65.4937 35.3355C65.4937 36.2042 65.2405 36.9045 64.7343 37.4365C64.2306 37.9684 63.5726 38.2344 62.7605 38.2344ZM62.8145 33.5892C62.3776 33.5892 62.0307 33.7537 61.7737 34.0827C61.5167 34.4091 61.3882 34.8421 61.3882 35.3818C61.3882 35.9292 61.5167 36.3622 61.7737 36.6809C62.0307 36.9996 62.3673 37.1589 62.7837 37.1589C63.2129 37.1589 63.5534 37.0047 63.8052 36.6963C64.0571 36.3854 64.183 35.9549 64.183 35.4049C64.183 34.8318 64.0609 34.3859 63.8168 34.0673C63.5726 33.7486 63.2386 33.5892 62.8145 33.5892Z" fill="#474747"/>
<path d="M69.6108 33.6239H67.6602V34.9809H69.4527V35.9909H67.6602V38.1381H66.415V32.6101H69.6108V33.6239Z" fill="#474747"/>
<path d="M74.5065 33.6239H72.9298V38.1381H71.6808V33.6239H70.1119V32.6101H74.5065V33.6239Z" fill="#474747"/>
<path d="M35.9727 46.1381H34.6157L34.2225 44.9083H32.2565L31.8672 46.1381H30.5179L32.5302 40.6101H34.0066L35.9727 46.1381ZM33.9373 43.9523L33.3436 42.0942C33.2999 41.9555 33.2691 41.7897 33.2511 41.597H33.2202C33.2074 41.7589 33.1753 41.9195 33.1239 42.0788L32.5225 43.9523H33.9373Z" fill="#474747"/>
<path d="M36.6627 46.1381V40.6101H38.621C40.5844 40.6101 41.5662 41.5083 41.5662 43.3047C41.5662 44.1656 41.2976 44.8531 40.7605 45.3671C40.2259 45.8811 39.5128 46.1381 38.621 46.1381H36.6627ZM37.9078 41.6239V45.1281H38.5246C39.0643 45.1281 39.4871 44.9662 39.7929 44.6424C40.1013 44.3185 40.2555 43.8778 40.2555 43.3201C40.2555 42.7933 40.1026 42.3795 39.7967 42.0788C39.4935 41.7756 39.0669 41.6239 38.5169 41.6239H37.9078Z" fill="#474747"/>
<path d="M47.0864 40.6101L45.1821 46.1381H43.7712L41.89 40.6101H43.2315L44.3841 44.4573C44.4458 44.6655 44.4831 44.8492 44.4959 45.0086H44.519C44.537 44.8364 44.5769 44.6475 44.6385 44.4419L45.7834 40.6101H47.0864Z" fill="#474747"/>
<path d="M52.2019 46.1381H50.845L50.4518 44.9083H48.4858L48.0964 46.1381H46.7472L48.7594 40.6101H50.2359L52.2019 46.1381ZM50.1665 43.9523L49.5728 42.0942C49.5292 41.9555 49.4983 41.7897 49.4803 41.597H49.4495C49.4366 41.7589 49.4045 41.9195 49.3531 42.0788L48.7517 43.9523H50.1665Z" fill="#474747"/>
<path d="M57.8648 46.1381H56.6081L54.3298 42.6648C54.1962 42.4617 54.1037 42.3088 54.0523 42.206H54.0368C54.0574 42.4014 54.0677 42.6995 54.0677 43.1004V46.1381H52.8919V40.6101H54.2334L56.4269 43.9754C56.5271 44.1271 56.6196 44.2774 56.7045 44.4265H56.7199C56.6993 44.298 56.689 44.0448 56.689 43.6671V40.6101H57.8648V46.1381Z" fill="#474747"/>
<path d="M63.0921 45.9415C62.6886 46.1368 62.1617 46.2344 61.5116 46.2344C60.6635 46.2344 59.9966 45.9851 59.5108 45.4866C59.0251 44.988 58.7823 44.3237 58.7823 43.4936C58.7823 42.6095 59.0547 41.8925 59.5995 41.3425C60.1469 40.7926 60.8562 40.5176 61.7274 40.5176C62.2671 40.5176 62.722 40.5857 63.0921 40.7219V41.9208C62.722 41.6998 62.3005 41.5892 61.8277 41.5892C61.3085 41.5892 60.8896 41.7524 60.5709 42.0788C60.2523 42.4052 60.0929 42.8472 60.0929 43.4049C60.0929 43.9395 60.2433 44.3661 60.544 44.6848C60.8446 45.0009 61.2494 45.1589 61.7583 45.1589C62.244 45.1589 62.6886 45.0407 63.0921 44.8043V45.9415Z" fill="#474747"/>
<path d="M67.371 46.1381H64.0558V40.6101H67.2438V41.6239H65.3009V42.8537H67.1089V43.8637H65.3009V45.1281H67.371V46.1381Z" fill="#474747"/>
<path d="M68.2577 46.1381V40.6101H70.216C72.1794 40.6101 73.1611 41.5083 73.1611 43.3047C73.1611 44.1656 72.8926 44.8531 72.3555 45.3671C71.8209 45.8811 71.1077 46.1381 70.216 46.1381H68.2577ZM69.5028 41.6239V45.1281H70.1196C70.6593 45.1281 71.082 44.9662 71.3879 44.6424C71.6963 44.3185 71.8505 43.8778 71.8505 43.3201C71.8505 42.7933 71.6975 42.3795 71.3917 42.0788C71.0885 41.7756 70.6619 41.6239 70.1119 41.6239H69.5028Z" fill="#474747"/>
<path d="M35.3405 54.1381H32.0252V48.6101H35.2132V49.6239H33.2704V50.8537H35.0783V51.8637H33.2704V53.1281H35.3405V54.1381Z" fill="#474747"/>
<path d="M36.2271 54.1381V48.6101H38.1854C40.1488 48.6101 41.1306 49.5083 41.1306 51.3047C41.1306 52.1656 40.862 52.8531 40.3249 53.3671C39.7903 53.8811 39.0772 54.1381 38.1854 54.1381H36.2271ZM37.4722 49.6239V53.1281H38.089C38.6287 53.1281 39.0515 52.9662 39.3573 52.6423C39.6657 52.3185 39.8199 51.8778 39.8199 51.3201C39.8199 50.7933 39.667 50.3795 39.3611 50.0788C39.0579 49.7756 38.6313 49.6239 38.0813 49.6239H37.4722Z" fill="#474747"/>
<path d="M46.5544 51.7442C46.5544 53.4043 45.7809 54.2344 44.2338 54.2344C42.7329 54.2344 41.9825 53.4236 41.9825 51.802V48.6101H43.2315V51.8174C43.2315 52.7117 43.581 53.1589 44.28 53.1589C44.9662 53.1589 45.3093 52.7272 45.3093 51.8637V48.6101H46.5544V51.7442Z" fill="#474747"/>
<path d="M51.7239 53.9415C51.3204 54.1368 50.7936 54.2344 50.1434 54.2344C49.2953 54.2344 48.6284 53.9851 48.1427 53.4866C47.6569 52.988 47.4141 52.3237 47.4141 51.4936C47.4141 50.6095 47.6865 49.8925 48.2313 49.3425C48.7787 48.7926 49.488 48.5176 50.3592 48.5176C50.8989 48.5176 51.3538 48.5857 51.7239 48.7219V49.9208C51.3538 49.6998 50.9323 49.5892 50.4595 49.5892C49.9403 49.5892 49.5214 49.7524 49.2028 50.0788C48.8841 50.4052 48.7248 50.8472 48.7248 51.4049C48.7248 51.9395 48.8751 52.3661 49.1758 52.6848C49.4765 53.0009 49.8812 53.1589 50.3901 53.1589C50.8758 53.1589 51.3204 53.0407 51.7239 52.8043V53.9415Z" fill="#474747"/>
<path d="M57.5487 54.1381H56.1918L55.7985 52.9083H53.8325L53.4432 54.1381H52.094L54.1062 48.6101H55.5827L57.5487 54.1381ZM55.5133 51.9523L54.9196 50.0942C54.8759 49.9555 54.8451 49.7897 54.8271 49.597H54.7963C54.7834 49.7589 54.7513 49.9195 54.6999 50.0788L54.0985 51.9523H55.5133Z" fill="#474747"/>
<path d="M61.5655 49.6239H59.9889V54.1381H58.7399V49.6239H57.1709V48.6101H61.5655V49.6239Z" fill="#474747"/>
<path d="M64.3526 54.2344C63.5611 54.2344 62.916 53.9774 62.4175 53.4634C61.9189 52.9469 61.6696 52.2748 61.6696 51.4473C61.6696 50.5735 61.9227 49.8668 62.429 49.3271C62.9353 48.7874 63.6061 48.5176 64.4413 48.5176C65.2303 48.5176 65.8676 48.7759 66.3533 49.2924C66.8416 49.809 67.0858 50.49 67.0858 51.3355C67.0858 52.2042 66.8326 52.9045 66.3264 53.4365C65.8226 53.9684 65.1647 54.2344 64.3526 54.2344ZM64.4066 49.5892C63.9697 49.5892 63.6228 49.7537 63.3658 50.0827C63.1088 50.4091 62.9803 50.8421 62.9803 51.3818C62.9803 51.9292 63.1088 52.3622 63.3658 52.6809C63.6228 52.9996 63.9594 53.1589 64.3758 53.1589C64.8049 53.1589 65.1455 53.0047 65.3973 52.6963C65.6492 52.3854 65.7751 51.9549 65.7751 51.4049C65.7751 50.8318 65.653 50.3859 65.4089 50.0673C65.1647 49.7486 64.8306 49.5892 64.4066 49.5892Z" fill="#474747"/>
<path d="M72.6446 54.1381H71.2144L70.3548 52.7156C70.2905 52.6077 70.2288 52.5113 70.1697 52.4265C70.1106 52.3417 70.0502 52.2697 69.9885 52.2106C69.9294 52.1489 69.8665 52.1027 69.7996 52.0718C69.7354 52.0384 69.6647 52.0217 69.5876 52.0217H69.2522V54.1381H68.0071V48.6101H69.9808C71.3223 48.6101 71.9931 49.1112 71.9931 50.1135C71.9931 50.3063 71.9635 50.4849 71.9044 50.6494C71.8453 50.8113 71.7618 50.9577 71.6539 51.0888C71.5459 51.2199 71.4149 51.333 71.2607 51.428C71.109 51.5231 70.9394 51.5977 70.7518 51.6516V51.6671C70.834 51.6928 70.9137 51.7352 70.9908 51.7943C71.0679 51.8508 71.1424 51.9176 71.2144 51.9947C71.2864 52.0718 71.3545 52.1553 71.4187 52.2453C71.4855 52.3327 71.5459 52.4188 71.5999 52.5036L72.6446 54.1381ZM69.2522 49.543V51.0811H69.7919C70.0592 51.0811 70.2738 51.004 70.4357 50.8498C70.6002 50.693 70.6824 50.499 70.6824 50.2677C70.6824 49.7846 70.3933 49.543 69.8151 49.543H69.2522Z" fill="#474747"/>
<path d="M55.12 69.3327C51.0922 70.0865 49.9467 73.8556 50.9789 75.0602C52.0554 76.3289 54.7037 75.9914 55.7777 74.2621C56.2089 73.5649 56.4084 72.2716 56.842 71.3502C57.4455 70.0618 59.0591 69.1578 59.0591 69.1578C57.5687 69.0888 56.7286 69.0198 55.12 69.3327Z" fill="#C64DD9"/>
<path d="M55.9723 86.3982C55.6087 86.7801 55.307 87.2165 55.0781 87.6915C54.2627 86.3563 53.3537 85.1147 52.9176 83.6662C52.048 80.8406 53.6222 76.3694 53.6222 76.3694C53.6222 76.3694 49.9885 78.6924 49.4466 82.198C49.3457 83.1389 49.4388 84.0905 49.72 84.994C49.1638 85.0897 48.598 85.1179 48.035 85.0778C46.956 84.9669 44.8892 84.3387 44.8892 84.3387C44.8892 84.3387 46.1209 86.4499 50.496 87.3762C51.0257 88.869 51.5775 90.389 51.7278 91.8104C51.8977 93.4462 51.1365 95.0129 50.363 96.1609H56.4823C56.7617 94.8044 56.8447 93.4147 56.7286 92.0346C56.6666 91.3829 56.5234 90.7416 56.3024 90.1254C56.5365 89.14 56.901 87.8738 57.3248 87.2333C58.1205 86.0262 59.6035 84.8585 59.6035 84.8585C59.6035 84.8585 57.1671 85.3069 55.9723 86.3982Z" fill="#873B1C"/>
<path d="M39.5434 80.4352C40.0361 83.8841 43.1918 84.9927 44.2535 84.1674C45.372 83.3027 45.1847 81.0413 43.7608 80.0633C43.1844 79.6691 42.0931 79.4523 41.3269 79.0483C40.2553 78.4866 39.5483 77.0898 39.5483 77.0898C39.4301 78.3462 39.3389 79.0557 39.5434 80.4352Z" fill="#FA9525"/>
<path d="M64.5008 80.2997C64.4639 83.7831 61.4757 85.2907 60.3129 84.6108C59.0935 83.8964 58.9851 81.63 60.276 80.4771C60.7958 80.0115 61.8477 79.6543 62.5571 79.1542C63.5425 78.4595 64.0648 76.9814 64.0648 76.9814C64.3432 78.2132 64.5255 78.9054 64.5008 80.2997Z" fill="#47C4FB"/>
<path d="M43.1721 88.9291C44.7882 90.6535 46.9634 90.0229 47.2295 89.1508C47.5078 88.2369 46.5224 87.0618 45.3523 87.079C44.8793 87.079 44.192 87.3944 43.6106 87.4707C42.8001 87.5791 41.864 87.0815 41.864 87.0815C42.2091 87.757 42.6497 88.3792 43.1721 88.9291V88.9291Z" fill="#4FAD4E"/>
<path d="M63.0105 88.5086C61.8649 90.5681 59.6035 90.5015 59.1305 89.7255C58.6378 88.9077 59.3005 87.5257 60.4411 87.2621C60.8993 87.1512 61.6408 87.2793 62.2221 87.2103C63.0351 87.1167 63.8209 86.4048 63.8209 86.4048C63.6514 87.1408 63.3785 87.8491 63.0105 88.5086Z" fill="#4FAD4E"/>
<path d="M58.6919 78.6051C58.0588 80.8739 55.8441 81.3346 55.2036 80.6892C54.5311 80.0068 54.8563 78.509 55.9032 77.9793C56.3245 77.7675 57.0734 77.7182 57.6277 77.5162C58.3938 77.2354 58.9924 76.3608 58.9924 76.3608C59.0008 77.1195 58.8995 77.8754 58.6919 78.6051Z" fill="#4FAD4E"/>
<path d="M44.7732 75.9696C45.4063 78.2384 47.621 78.6991 48.2615 78.0537C48.902 77.4083 48.6064 75.8735 47.5619 75.3439C47.1406 75.1295 46.3917 75.0803 45.8374 74.8783C45.0713 74.5974 44.4727 73.7229 44.4727 73.7229C44.4641 74.4824 44.5653 75.2391 44.7732 75.9696Z" fill="#4FAD4E"/>
<path d="M49.29 24.3342H48.6382V21.7712C48.6382 21.5613 48.6511 21.3045 48.6769 21.0007H48.6659C48.6254 21.1737 48.5895 21.298 48.5582 21.3735L47.3761 24.3342H46.9231L45.7383 21.3956C45.7052 21.3091 45.6702 21.1774 45.6334 21.0007H45.6223C45.637 21.159 45.6444 21.4177 45.6444 21.7768V24.3342H45.0368V20.3737H45.962L47.0032 23.0113C47.0824 23.2138 47.134 23.3648 47.1579 23.4642H47.1717C47.2398 23.2562 47.2951 23.1015 47.3374 23.0002L48.398 20.3737H49.29V24.3342Z" fill="#737373"/>
<path d="M50.3211 20.9123C50.2161 20.9123 50.1259 20.8782 50.0504 20.8101C49.9768 20.742 49.94 20.6554 49.94 20.5505C49.94 20.4455 49.9768 20.3581 50.0504 20.2881C50.1259 20.2182 50.2161 20.1832 50.3211 20.1832C50.4297 20.1832 50.5218 20.2182 50.5973 20.2881C50.6728 20.3581 50.7105 20.4455 50.7105 20.5505C50.7105 20.6499 50.6728 20.7355 50.5973 20.8073C50.5218 20.8773 50.4297 20.9123 50.3211 20.9123ZM50.6387 24.3342H49.998V21.5061H50.6387V24.3342Z" fill="#737373"/>
<path d="M53.3048 24.2044C53.0783 24.3351 52.8104 24.4005 52.5011 24.4005C52.0813 24.4005 51.7425 24.2698 51.4847 24.0083C51.2269 23.745 51.0981 23.4044 51.0981 22.9864C51.0981 22.5206 51.2362 22.1468 51.5123 21.8651C51.7904 21.5816 52.1614 21.4398 52.6254 21.4398C52.8831 21.4398 53.1105 21.4849 53.3075 21.5751V22.1717C53.1105 22.0244 52.9006 21.9507 52.6778 21.9507C52.4072 21.9507 52.1853 22.0428 52.0122 22.2269C51.8392 22.4092 51.7526 22.6486 51.7526 22.945C51.7526 23.2378 51.8336 23.4688 51.9957 23.6382C52.1595 23.8076 52.3786 23.8923 52.653 23.8923C52.8831 23.8923 53.1004 23.8104 53.3048 23.6465V24.2044Z" fill="#737373"/>
<path d="M55.3853 22.1165C55.308 22.0557 55.1966 22.0253 55.0511 22.0253C54.8615 22.0253 54.7031 22.1109 54.5761 22.2822C54.4491 22.4534 54.3855 22.6863 54.3855 22.9809V24.3342H53.7448V21.5061H54.3855V22.0888H54.3966C54.4592 21.89 54.5549 21.7353 54.6838 21.6248C54.8145 21.5125 54.96 21.4564 55.1202 21.4564C55.2362 21.4564 55.3246 21.4739 55.3853 21.5089V22.1165Z" fill="#737373"/>
<path d="M56.8445 24.4005C56.4081 24.4005 56.0592 24.2689 55.7977 24.0056C55.5381 23.7404 55.4083 23.3897 55.4083 22.9533C55.4083 22.4783 55.5436 22.1073 55.8143 21.8403C56.0868 21.5733 56.4532 21.4398 56.9135 21.4398C57.3554 21.4398 57.6997 21.5696 57.9464 21.8292C58.1932 22.0888 58.3165 22.4488 58.3165 22.9091C58.3165 23.3602 58.183 23.722 57.9161 23.9945C57.6509 24.2652 57.2937 24.4005 56.8445 24.4005ZM56.8748 21.9507C56.6244 21.9507 56.4265 22.0382 56.281 22.2131C56.1356 22.388 56.0629 22.6292 56.0629 22.9367C56.0629 23.2332 56.1365 23.467 56.2838 23.6382C56.4311 23.8076 56.6281 23.8923 56.8748 23.8923C57.1271 23.8923 57.3204 23.8085 57.4548 23.641C57.5911 23.4734 57.6592 23.235 57.6592 22.9257C57.6592 22.6145 57.5911 22.3742 57.4548 22.2048C57.3204 22.0354 57.1271 21.9507 56.8748 21.9507Z" fill="#737373"/>
<path d="M58.5964 24.2458V23.652C58.8357 23.8343 59.0999 23.9255 59.389 23.9255C59.7757 23.9255 59.969 23.8113 59.969 23.583C59.969 23.5186 59.9524 23.4642 59.9193 23.42C59.8861 23.374 59.841 23.3335 59.7839 23.2985C59.7287 23.2635 59.6624 23.2322 59.5851 23.2046C59.5096 23.177 59.4249 23.1457 59.331 23.1107C59.215 23.0647 59.1101 23.0159 59.0162 22.9643C58.9241 22.9128 58.8468 22.8548 58.7842 22.7903C58.7234 22.7241 58.6774 22.6495 58.6461 22.5666C58.6148 22.4838 58.5991 22.3871 58.5991 22.2766C58.5991 22.1404 58.6313 22.0207 58.6958 21.9176C58.7602 21.8127 58.8468 21.7252 58.9554 21.6552C59.064 21.5834 59.1874 21.53 59.3255 21.495C59.4636 21.4582 59.6063 21.4398 59.7536 21.4398C60.015 21.4398 60.2489 21.4794 60.4551 21.5586V22.1192C60.2562 21.983 60.0279 21.9148 59.7701 21.9148C59.6891 21.9148 59.6155 21.9231 59.5492 21.9397C59.4847 21.9563 59.4295 21.9793 59.3835 22.0087C59.3375 22.0382 59.3015 22.0741 59.2758 22.1165C59.25 22.157 59.2371 22.2021 59.2371 22.2518C59.2371 22.3125 59.25 22.3641 59.2758 22.4065C59.3015 22.4488 59.3393 22.4865 59.389 22.5197C59.4406 22.551 59.5013 22.5804 59.5713 22.6081C59.6431 22.6338 59.725 22.6624 59.8171 22.6937C59.9386 22.7434 60.0472 22.794 60.143 22.8456C60.2406 22.8971 60.3234 22.9561 60.3916 23.0223C60.4597 23.0868 60.5122 23.1623 60.549 23.2488C60.5858 23.3335 60.6042 23.4348 60.6042 23.5526C60.6042 23.6962 60.5711 23.8214 60.5048 23.9282C60.4385 24.035 60.3501 24.1234 60.2397 24.1934C60.1292 24.2633 60.0012 24.3149 59.8558 24.348C59.7121 24.383 59.5602 24.4005 59.4001 24.4005C59.0907 24.4005 58.8228 24.3489 58.5964 24.2458Z" fill="#737373"/>
<path d="M62.2705 24.4005C61.8341 24.4005 61.4852 24.2689 61.2238 24.0056C60.9641 23.7404 60.8343 23.3897 60.8343 22.9533C60.8343 22.4783 60.9697 22.1073 61.2403 21.8403C61.5128 21.5733 61.8792 21.4398 62.3395 21.4398C62.7814 21.4398 63.1257 21.5696 63.3725 21.8292C63.6192 22.0888 63.7426 22.4488 63.7426 22.9091C63.7426 23.3602 63.6091 23.722 63.3421 23.9945C63.077 24.2652 62.7198 24.4005 62.2705 24.4005ZM62.3009 21.9507C62.0505 21.9507 61.8525 22.0382 61.7071 22.2131C61.5616 22.388 61.4889 22.6292 61.4889 22.9367C61.4889 23.2332 61.5625 23.467 61.7098 23.6382C61.8571 23.8076 62.0541 23.8923 62.3009 23.8923C62.5531 23.8923 62.7465 23.8085 62.8809 23.641C63.0171 23.4734 63.0852 23.235 63.0852 22.9257C63.0852 22.6145 63.0171 22.3742 62.8809 22.2048C62.7465 22.0354 62.5531 21.9507 62.3009 21.9507Z" fill="#737373"/>
<path d="M65.7044 20.6693C65.6178 20.6195 65.5193 20.5947 65.4088 20.5947C65.0977 20.5947 64.9421 20.7705 64.9421 21.1222V21.5061H65.5994V22.0087H64.9448V24.3342H64.3041V22.0087H63.8208V21.5061H64.3041V21.0476C64.3041 20.7493 64.4017 20.5146 64.5969 20.3434C64.792 20.1703 65.036 20.0837 65.3287 20.0837C65.4871 20.0837 65.6123 20.1012 65.7044 20.1362V20.6693Z" fill="#737373"/>
<path d="M67.4535 24.3038C67.3283 24.3664 67.1635 24.3977 66.9591 24.3977C66.4104 24.3977 66.1361 24.1344 66.1361 23.6079V22.0087H65.6638V21.5061H66.1361V20.8515L66.7768 20.6693V21.5061H67.4535V22.0087H66.7768V23.4228C66.7768 23.5904 66.8072 23.71 66.868 23.7819C66.9287 23.8537 67.03 23.8896 67.1718 23.8896C67.2804 23.8896 67.3743 23.8583 67.4535 23.7957V24.3038Z" fill="#737373"/>
<path d="M43.0009 19.0757H39.8819V22.1947H43.0009V19.0757Z" fill="#7FBE00"/>
<path d="M39.591 19.0757H36.472V22.1947H39.591V19.0757Z" fill="#F65212"/>
<path d="M43.0009 22.5012H39.8819V25.6202H43.0009V22.5012Z" fill="#FFBB00"/>
<path d="M39.591 22.5012H36.472V25.6202H39.591V22.5012Z" fill="#00A4F3"/>
<path d="M41.8834 63.4709H45.0636V64.8413H40.0736V64.2764C40.0736 63.8928 40.1381 63.5493 40.2671 63.246C40.3962 62.9391 40.5583 62.6654 40.7536 62.4248C40.9489 62.1807 41.1616 61.9662 41.3917 61.7814C41.6254 61.5931 41.8468 61.424 42.056 61.274C42.2757 61.1171 42.4675 60.9672 42.6314 60.8242C42.7987 60.6812 42.9382 60.54 43.0498 60.4005C43.1649 60.2575 43.2503 60.1146 43.3061 59.9716C43.3619 59.8252 43.3898 59.67 43.3898 59.5061C43.3898 59.1853 43.2991 58.9429 43.1178 58.779C42.9365 58.6151 42.6593 58.5332 42.2861 58.5332C41.641 58.5332 41.0238 58.7895 40.4345 59.3021V57.848C41.0866 57.4261 41.8224 57.2151 42.6418 57.2151C43.0219 57.2151 43.3619 57.2657 43.6618 57.3668C43.9652 57.4644 44.2215 57.6056 44.4307 57.7905C44.6399 57.9753 44.7986 58.2002 44.9067 58.4652C45.0183 58.7267 45.0741 59.0196 45.0741 59.3439C45.0741 59.6892 45.02 59.996 44.9119 60.2645C44.8073 60.533 44.6661 60.7771 44.4882 60.9968C44.3139 61.2165 44.1116 61.4187 43.8815 61.6036C43.6513 61.7849 43.4125 61.961 43.1649 62.1318C42.9975 62.2504 42.8354 62.369 42.6784 62.4875C42.525 62.6026 42.389 62.7177 42.2705 62.8327C42.1519 62.9443 42.0577 63.0542 41.988 63.1623C41.9183 63.2704 41.8834 63.3732 41.8834 63.4709Z" fill="#454545"/>
<path d="M48.8401 64.9721C47.0547 64.9721 46.162 63.7185 46.162 61.2113C46.162 59.9106 46.4026 58.9203 46.8838 58.2403C47.3685 57.5568 48.0694 57.2151 48.9865 57.2151C50.7301 57.2151 51.6018 58.4896 51.6018 61.0387C51.6018 62.3079 51.363 63.2808 50.8852 63.9573C50.411 64.6338 49.7293 64.9721 48.8401 64.9721ZM48.9133 58.4757C48.1985 58.4757 47.841 59.3736 47.841 61.1694C47.841 62.8606 48.1915 63.7063 48.8924 63.7063C49.5759 63.7063 49.9176 62.8345 49.9176 61.091C49.9176 59.3474 49.5828 58.4757 48.9133 58.4757Z" fill="#454545"/>
<path d="M54.2067 63.4709H57.3869V64.8413H52.3969V64.2764C52.3969 63.8928 52.4614 63.5493 52.5904 63.246C52.7194 62.9391 52.8816 62.6654 53.0769 62.4248C53.2721 62.1807 53.4848 61.9662 53.715 61.7814C53.9486 61.5931 54.1701 61.424 54.3793 61.274C54.599 61.1171 54.7908 60.9672 54.9546 60.8242C55.122 60.6812 55.2615 60.54 55.3731 60.4005C55.4882 60.2575 55.5736 60.1146 55.6294 59.9716C55.6852 59.8252 55.7131 59.67 55.7131 59.5061C55.7131 59.1853 55.6224 58.9429 55.4411 58.779C55.2598 58.6151 54.9825 58.5332 54.6094 58.5332C53.9643 58.5332 53.3471 58.7895 52.7578 59.3021V57.848C53.4099 57.4261 54.1456 57.2151 54.9651 57.2151C55.3452 57.2151 55.6852 57.2657 55.9851 57.3668C56.2884 57.4644 56.5447 57.6056 56.754 57.7905C56.9632 57.9753 57.1219 58.2002 57.23 58.4652C57.3415 58.7267 57.3973 59.0196 57.3973 59.3439C57.3973 59.6892 57.3433 59.996 57.2352 60.2645C57.1306 60.533 56.9893 60.7771 56.8115 60.9968C56.6372 61.2165 56.4349 61.4187 56.2048 61.6036C55.9746 61.7849 55.7357 61.961 55.4882 62.1318C55.3208 62.2504 55.1586 62.369 55.0017 62.4875C54.8483 62.6026 54.7123 62.7177 54.5937 62.8327C54.4752 62.9443 54.381 63.0542 54.3113 63.1623C54.2415 63.2704 54.2067 63.3732 54.2067 63.4709Z" fill="#454545"/>
<path d="M58.7364 64.5955V63.157C59.2385 63.5232 59.8243 63.7063 60.4938 63.7063C60.9158 63.7063 61.2436 63.6156 61.4772 63.4343C61.7143 63.2529 61.8329 63.0001 61.8329 62.6758C61.8329 62.3411 61.6864 62.083 61.3935 61.9017C61.1041 61.7204 60.7048 61.6297 60.1957 61.6297H59.5V60.3639H60.1434C61.1198 60.3639 61.608 60.0396 61.608 59.391C61.608 58.7808 61.2331 58.4757 60.4834 58.4757C59.9812 58.4757 59.4931 58.6378 59.0188 58.9621V57.6126C59.5454 57.3476 60.1591 57.2151 60.86 57.2151C61.6271 57.2151 62.2234 57.3877 62.6489 57.7329C63.0778 58.0781 63.2922 58.5262 63.2922 59.0772C63.2922 60.057 62.7953 60.6708 61.8015 60.9183V60.9445C62.3315 61.0108 62.75 61.2043 63.0568 61.5251C63.3637 61.8424 63.5171 62.233 63.5171 62.6967C63.5171 63.3976 63.2608 63.9521 62.7482 64.3601C62.2356 64.7681 61.5278 64.9721 60.6246 64.9721C59.8505 64.9721 59.2211 64.8465 58.7364 64.5955Z" fill="#454545"/>
<path fill-rule="evenodd" clip-rule="evenodd" d="M95.0527 51.1322C95.0527 74.9322 75.7627 94.2222 51.9627 94.2222C28.1627 94.2222 8.87269 74.9322 8.87269 51.1322C8.87269 27.3322 28.1627 8.04225 51.9627 8.04225C75.7627 8.04225 95.0527 27.3322 95.0527 51.1322ZM51.9627 4.30225C77.8227 4.30225 98.7927 25.2722 98.7927 51.1322C98.7927 76.9922 77.8227 97.9623 51.9627 97.9623C26.1027 97.9623 5.13269 76.9922 5.13269 51.1322C5.13269 25.2722 26.0927 4.30225 51.9627 4.30225Z" fill="url(#paint0_linear_649_990)"/>
<defs>
<linearGradient id="paint0_linear_649_990" x1="51.9627" y1="4.30225" x2="51.9627" y2="97.9623" gradientUnits="userSpaceOnUse">
<stop stop-color="#BDBDBD"/>
<stop offset="0.171875" stop-color="#A2A2A2"/>
<stop offset="0.324602" stop-color="#878787"/>
<stop offset="0.499772" stop-color="#505050"/>
<stop offset="0.723958" stop-color="#484848"/>
<stop offset="0.833333" stop-color="#404040"/>
<stop offset="1" stop-color="#303030"/>
</linearGradient>
</defs>
</svg>
